Coordinates
version=1
nRows=65
nColumns=12
inDegrees=yes

Units are S.I. units (second, meters, Newtons, ...)
Angles are in degrees

endheader
time	SC_y	SC_z	SC_x	AC_y	AC_z	AC_x	GH_y	GH_z	GH_yy	EL_x	PS_y
       0.0               -29.0          2.765          13.86          46.98         -12.77          12.66         -72.88           62.0          100.8           29.1           46.9
   0.01301               -29.0          2.765          13.86          46.98         -12.77          12.66         -72.88           62.0          100.8          29.11          46.92
   0.02601              -29.01          2.765          13.86          46.98         -12.77          12.66         -72.89           62.0          100.8          29.12          46.93
   0.03902              -29.01          2.766          13.86          46.99         -12.76          12.66         -72.89          62.01          100.8          29.13          46.95
   0.05203              -29.01          2.766          13.86          46.99         -12.76          12.66         -72.89          62.01          100.8          29.15          46.97
   0.06504              -29.01          2.766          13.87          46.99         -12.76          12.66          -72.9          62.02          100.8          29.16          46.99
   0.07804              -29.02          2.766          13.87           47.0         -12.75          12.66          -72.9          62.02          100.8          29.17          47.01
   0.09105              -29.02          2.766          13.87           47.0         -12.75          12.66         -72.91          62.03          100.8          29.19          47.03
    0.1041              -29.02          2.767          13.87          47.01         -12.74          12.66         -72.91          62.03          100.8          29.21          47.05
    0.1171              -29.02          2.767          13.87          47.01         -12.74          12.66         -72.92          62.04          100.8          29.22          47.08
    0.1301              -29.03          2.767          13.87          47.02         -12.73          12.66         -72.93          62.04          100.9          29.24           47.1
    0.1431              -29.03          2.768          13.87          47.02         -12.73          12.66         -72.93          62.05          100.9          29.26          47.13
    0.1561              -29.04          2.768          13.87          47.03         -12.72          12.66         -72.94          62.06          100.9          29.28          47.16
    0.1691              -29.04          2.768          13.87          47.03         -12.71          12.66         -72.95          62.07          100.9          29.31           47.2
    0.1821              -29.05          2.769          13.87          47.04         -12.71          12.66         -72.96          62.07          100.9          29.33          47.23
    0.1951              -29.05          2.769          13.87          47.05          -12.7          12.66         -72.97          62.08          100.9          29.36          47.27
    0.2081              -29.06          2.769          13.87          47.05         -12.69          12.66         -72.98          62.09          101.0          29.39          47.31
    0.2211              -29.06           2.77          13.87          47.06         -12.68          12.66         -72.99          62.11          101.0          29.42          47.36
    0.2341              -29.07           2.77          13.87          47.07         -12.67          12.66          -73.0          62.12          101.0          29.46          47.41
    0.2471              -29.08          2.771          13.87          47.08         -12.66          12.66         -73.01          62.13          101.0           29.5          47.47
    0.2601              -29.09          2.772          13.87          47.09         -12.65          12.66         -73.03          62.15          101.1          29.54          47.53
    0.2732               -29.1          2.772          13.88           47.1         -12.63          12.65         -73.04          62.16          101.1          29.59          47.59
    0.2862              -29.11          2.773          13.88          47.12         -12.62          12.65         -73.06          62.18          101.2          29.64          47.67
    0.2992              -29.12          2.774          13.88          47.13          -12.6          12.65         -73.08           62.2          101.2           29.7          47.75
    0.3122              -29.13          2.775          13.88          47.15         -12.58          12.65          -73.1          62.22          101.2          29.77          47.84
    0.3252              -29.14          2.776          13.88          47.17         -12.56          12.65         -73.13          62.24          101.3          29.84          47.94
    0.3382              -29.16          2.777          13.88          47.19         -12.54          12.65         -73.16          62.27          101.4          29.92          48.06
    0.3512              -29.18          2.779          13.89          47.21         -12.51          12.65         -73.19           62.3          101.4          30.01          48.18
    0.3642               -29.2           2.78          13.89          47.24         -12.48          12.65         -73.22          62.34          101.5          30.11          48.33
    0.3772              -29.22          2.782          13.89          47.27         -12.45          12.65         -73.26          62.38          101.6          30.23          48.49
    0.3902              -29.25          2.784          13.89           47.3         -12.41          12.65         -73.31          62.42          101.7          30.36          48.68
    0.4032              -29.27          2.786           13.9          47.34         -12.37          12.65         -73.36          62.47          101.8          30.52           48.9
    0.4162              -29.31          2.789           13.9          47.39         -12.32          12.64         -73.42          62.53          101.9          30.69          49.14
    0.4292              -29.35          2.792          13.91          47.44         -12.26          12.64         -73.49           62.6          102.1           30.9          49.43
    0.4423               -29.4          2.795          13.91           47.5         -12.19          12.64         -73.57          62.68          102.3          31.14          49.77
    0.4553              -29.45            2.8          13.92          47.57         -12.11          12.64         -73.66          62.77          102.5          31.42          50.17
    0.4683              -29.51          2.805          13.93          47.66         -12.01          12.63         -73.78          62.89          102.7          31.76          50.64
    0.4813              -29.59          2.811          13.94          47.76          -11.9          12.63         -73.91          63.02          103.0          32.16          51.21
    0.4943              -29.69          2.818          13.95          47.89         -11.76          12.63         -74.08          63.19          103.4          32.65           51.9
    0.5073               -29.8          2.827          13.96          48.04         -11.59          12.62         -74.28          63.39          103.8          33.24          52.74
    0.5203              -29.94          2.838          13.98          48.23         -11.37          12.61         -74.53          63.63          104.4          33.98          53.77
    0.5333              -30.12          2.851           14.0          48.46         -11.11          12.61         -74.84          63.94          105.0          34.89          55.06
    0.5463              -30.35          2.869          14.03          48.76         -10.78          12.59         -75.23          64.33          105.9          36.05          56.69
    0.5593              -30.63          2.891          14.06          49.13         -10.36          12.58         -75.73          64.82          107.0          37.52          58.75
    0.5723              -30.99          2.919          14.11          49.61         -9.822          12.56         -76.36          65.45          108.4          39.39           61.4
    0.5853              -31.46          2.955          14.16          50.23         -9.131          12.54         -77.18          66.26          110.2           41.8           64.8
    0.5983              -32.05            3.0          14.24          51.02         -8.248          12.51         -78.22          67.29          112.5          44.88          69.13
    0.6113               -32.8          3.058          14.33          52.01         -7.138          12.48         -79.53          68.59          115.3          48.76          74.58
    0.6244              -33.72          3.129          14.44          53.22         -5.786          12.43         -81.13          70.17          118.8          53.47          81.23
    0.6374              -34.77           3.21          14.57          54.62         -4.218          12.38         -82.98           72.0          122.9          58.94          88.93
    0.6504              -35.92          3.298          14.71          56.13          -2.52          12.33         -84.98          73.99          127.3          64.86          97.27
    0.6634              -37.07          3.387          14.85          57.65        -0.8229          12.27         -86.98          75.98          131.7          70.79          105.6
    0.6764              -38.12          3.468          14.98          59.05         0.7449          12.22         -88.84          77.81          135.7          76.25          113.3
    0.6894              -39.04          3.539          15.09          60.26          2.097          12.18         -90.43          79.39          139.2          80.97          120.0
    0.7024              -39.79          3.596          15.18          61.25          3.207          12.14         -91.74          80.69          142.1          84.84          125.4
    0.7154              -40.38          3.642          15.26          62.03           4.09          12.11         -92.78          81.72          144.4          87.92          129.7
    0.7284              -40.85          3.678          15.31          62.65          4.781          12.09          -93.6          82.53          146.2          90.33          133.1
    0.7414              -41.21          3.706          15.36          63.13           5.32          12.07         -94.24          83.16          147.6          92.21          135.8
    0.7544               -41.5          3.728          15.39          63.51           5.74          12.06         -94.73          83.65          148.7          93.68          137.9
    0.7674              -41.72          3.745          15.42           63.8          6.071          12.05         -95.12          84.04          149.5          94.83          139.5
    0.7804               -41.9          3.759          15.44          64.04          6.334          12.04         -95.43          84.35          150.2          95.75          140.8
    0.7934              -42.04           3.77          15.46          64.23          6.545          12.03         -95.68          84.59          150.7          96.49          141.8
    0.8065              -42.15          3.779          15.47          64.38          6.715          12.03         -95.88          84.79          151.2          97.08          142.6
    0.8195              -42.25          3.786          15.48           64.5          6.855          12.02         -96.05          84.96          151.5          97.57          143.3
    0.8325              -42.33          3.792          15.49          64.61          6.971          12.02         -96.18          85.09          151.8          97.97          143.9
